<?xml version="1.0" encoding="utf-8"?>
<!DOCTYPE svg PUBLIC "-//W3C//DTD SVG 1.1//EN" "http://www.w3.org/Graphics/SVG/1.1/DTD/svg11.dtd">
<svg version="1.1" id="Layer_1" xmlns="http://www.w3.org/2000/svg" xmlns:xlink="http://www.w3.org/1999/xlink" x="0px" y="0px"
	 width="528px" height="366.971px" viewBox="0 0 528 366.971" enable-background="new 0 0 528 366.971" xml:space="preserve">
<path fill="#DC2C28" d="M410.58,76.75v275.699c0,8.021-5.801,14.521-12.95,14.521H151.8c-7.16,0-12.96-6.5-12.96-14.5V14.5
	c0-8,5.8-14.5,12.97-14.5h191.3l67.5,76.75h-0.02H410.58z"/>
<path fill="#B72323" d="M341.5,0V77.57h69.08"/>
<path fill="#AAB585" stroke="#FFFFFF" stroke-width="0.223" d="M270.02,47.77c-3.3,0.271-6.3,1.62-8.399,5
	c-2.12,3.36-3.431,8.28-3.801,14.601c-0.619,12.069,2.4,29.239,10.24,50.199c-7.2,23.801-40.13,92.57-41.54,95.061
	c-51.06,14.38-59.069,24.939-62.37,33.229c-3.54,8.78,0.5,26.561,13.63,26.561c6.341,0,21.48,5.7,52.74-54.26
	c13.92-3.62,30.95-7.101,51.96-10.12c14.13-2.03,26-3.2,36.101-3.75c24.199,27.5,40.43,26,48.699,25.2l2.801-0.16
	c2.8,0.14,5.75-1.86,7.55-5.101c2.359-4.13,2.06-9.029-0.7-13.08c-4.88-7.14-26.54-17.739-63.4-16.159
	c-13.779-16.23-16.369-25.381-24.3-39.78c-7.8-14.23-11.8-25.021-15.399-34.5c9.8-32.84,12.02-51.021,12.04-51.36
	c0.399-2.16-1.23-8-1.471-8.82c-3.029-10.22-9.199-13.14-14.38-12.77V47.77z M263.46,67.39c0.3-5.4,1.33-9.33,2.8-11.75
	c1.06-1.62,3.08-1.78,4.32-1.72c2.33,0.1,10.149,2.1,8.149,11.359c-0.37,3.671-1.87,23.841-8.67,48.301
	c-5.85-17.601-7.1-36.801-6.6-46.221V67.39z M237.46,207.16c10.62-19.87,24-44.46,35.3-79.601c3.85,9.28,7.1,17.33,12.86,27.82
	c10.46,18.93,16.869,29.899,25.449,40.5c-9.449,0.63-20.58,2.87-32.88,4.64c-18.739,2.7-41.399,7.82-40.75,6.63L237.46,207.16z
	 M172.64,264.82c-10.1-5.399-6.92-25.06,43.55-39.699c-22.43,37.12-34.8,43.52-43.569,39.699H172.64z M372.29,214.12
	c2.199,3.1,1.33,5.87,0.64,7.229c-0.9,1.7-2.2,2.45-2.56,2.45l-3.66,0.2c-7.07,0.7-26.7,1.2-47.24-20.75c34-0.87,50,7,52.8,10.899
	v-0.02L372.29,214.12z"/>
<g>
	
		<linearGradient id="SVGID_1_" gradientUnits="userSpaceOnUse" x1="543.0706" y1="-80.2893" x2="649.2405" y2="-80.2893" gradientTransform="matrix(1 0 0 -1 -121.02 220.4907)">
		<stop  offset="0" style="stop-color:#333333"/>
		<stop  offset="0.574" style="stop-color:#3C3C3C"/>
		<stop  offset="1" style="stop-color:#464646"/>
	</linearGradient>
	<path fill="url(#SVGID_1_)" d="M528.22,252.97c-34.08-2.14-68.181-3.87-102.3-5.18l0.01,0.01c-1.3,33.63-2.601,67.27-3.88,100.899
		c33.3,1.3,66.569,2.98,99.83,5.07c-9.971-17.5-20.08-34.95-30.32-52.37C503.64,285.2,515.86,269.06,528.22,252.97z"/>
	
		<linearGradient id="SVGID_2_" gradientUnits="userSpaceOnUse" x1="121.7996" y1="-80.2893" x2="227.9705" y2="-80.2893" gradientTransform="matrix(1 0 0 -1 -121.02 220.4907)">
		<stop  offset="0" style="stop-color:#464646"/>
		<stop  offset="0.426" style="stop-color:#3C3C3C"/>
		<stop  offset="1" style="stop-color:#333333"/>
	</linearGradient>
	<path fill="url(#SVGID_2_)" d="M103.08,247.79c-34.12,1.31-68.221,3.04-102.301,5.18C12.5,269.1,24.1,285.28,35.58,301.5
		c-9.61,17.39-19.101,34.819-28.46,52.27c33.26-2.09,66.529-3.771,99.83-5.07c-1.28-33.63-2.58-67.27-3.881-100.899L103.08,247.79z"
		/>
</g>
<path fill="#4C4C4C" d="M438.22,345.36c-116.43-4.93-233-4.899-349.44,0.101c-1.369-31.98-2.739-63.95-4.1-95.92
	c119.14-5.101,238.45-5.141,357.6-0.101C440.93,281.42,439.579,313.39,438.22,345.36z"/>
<radialGradient id="SVGID_3_" cx="506.55" cy="346.3792" r="134.9007" gradientTransform="matrix(1 0 0 4 -242.04 -1095.8865)" gradientUnits="userSpaceOnUse">
	<stop  offset="0" style="stop-color:#747474"/>
	<stop  offset="0.284" style="stop-color:#5E5E5E"/>
	<stop  offset="0.743" style="stop-color:#3F3F3F"/>
	<stop  offset="1" style="stop-color:#333333"/>
</radialGradient>
<path fill="url(#SVGID_3_)" d="M443.35,342.579c-119.18-5.199-238.52-5.199-357.7,0c-1.479-33.97-2.96-67.93-4.439-101.899
	c122.149-5.33,244.47-5.33,366.6,0c-1.5,33.96-2.96,67.93-4.44,101.899H443.35z"/>
<path fill="#AAB585" d="M129,272.36l7.6-1.229c4.9-0.8,8.26-1.101,10.061-0.94c1.8,0.15,3.229,0.7,4.3,1.561
	c1.06,0.88,1.8,1.939,2.24,3.16c0.439,1.22,0.939,3.699,1.54,7.38l2.199,13.68c0.58,3.5,0.801,5.87,0.66,7.1
	c-0.14,1.24-0.57,2.25-1.28,3.05c-0.699,0.801-1.64,1.431-2.8,1.9c-1.17,0.45-2.96,0.88-5.399,1.27l-12.801,2.07l-6.3-39H129
	L129,272.36z M140.24,277.39l4.159,25.649c1.46-0.239,2.301-0.68,2.561-1.319c0.24-0.641,0.149-2.26-0.271-4.87L144.21,281.7
	c-0.3-1.761-0.521-2.9-0.72-3.37c-0.181-0.471-0.5-0.801-0.94-0.971s-1.2-0.159-2.32,0.021L140.24,277.39z M192.46,287.07
	c0.439,3.94,0.649,6.75,0.649,8.4c0,1.68-0.399,3.24-1.229,4.7c-0.83,1.479-2.04,2.659-3.62,3.579c-1.6,0.9-3.5,1.5-5.7,1.73
	c-2.1,0.2-4.04,0.1-5.8-0.4c-1.74-0.5-3.2-1.399-4.37-2.67c-1.17-1.27-1.939-2.699-2.32-4.3c-0.38-1.6-0.779-4.399-1.229-8.449
	l-0.74-6.73c-0.45-3.95-0.66-6.75-0.66-8.4c0-1.68,0.42-3.239,1.25-4.699c0.82-1.48,2.03-2.67,3.601-3.58c1.6-0.92,3.5-1.5,5.7-1.74
	c2.1-0.24,4.05-0.1,5.8,0.4s3.2,1.399,4.38,2.649c1.17,1.271,1.939,2.7,2.3,4.3c0.4,1.601,0.8,4.4,1.24,8.46l0.76,6.721l-0.02,0.02
	L192.46,287.07z M180.82,275.29c-0.199-1.83-0.439-3-0.699-3.48c-0.25-0.479-0.7-0.7-1.33-0.62c-0.55,0.061-0.94,0.3-1.181,0.75
	c-0.229,0.45-0.239,1.681-0.02,3.7l2.04,18.35c0.25,2.28,0.5,3.67,0.75,4.2c0.22,0.5,0.7,0.72,1.36,0.64
	c0.699-0.069,1.1-0.43,1.239-1.06c0.13-0.64,0.07-2.12-0.2-4.43l-1.979-18.05H180.82z M242.92,260.69l-2.5,39.7l-12.8,0.68
	c-1.5-6-2.9-12.85-4.2-20.54c-0.24,3.341-0.83,10.301-1.78,20.851l-12.74,0.649l-6.67-39.229l9.971-0.521L214,276l1.76,13.26
	c0.02-6.9,0.5-16,1.42-27.24l10.65-0.56c0.199,1.149,0.8,5.47,1.8,12.97l1.93,14.95c0.08-9.58,0.55-18.98,1.4-28.18l9.96-0.53
	V260.69z M278.47,260.76l-0.2,39.52l-9.02-0.06l-5.25-18l-0.101,17.97l-8.6-0.04l0.22-39.52l8.601,0.04l5.659,17.819l0.101-17.8
	l8.6,0.05v0.021H278.47z M303.02,261.74l-1.56,31.58l6.24,0.301l-0.4,7.899l-16.5-0.8l1.95-39.5L303.02,261.74L303.02,261.74z
	 M343.1,288.14c-0.37,3.97-0.729,6.76-1.07,8.38c-0.34,1.62-1.069,3.08-2.18,4.35c-1.1,1.271-2.53,2.2-4.27,2.761
	c-1.74,0.569-3.721,0.75-5.94,0.54c-2.1-0.2-3.96-0.73-5.58-1.57c-1.6-0.83-2.859-2-3.75-3.46c-0.88-1.47-1.34-3.03-1.399-4.67
	c-0.04-1.64,0.159-4.5,0.54-8.54l0.64-6.729c0.37-3.961,0.729-6.75,1.07-8.381c0.34-1.63,1.069-3.069,2.18-4.34
	c1.1-1.27,2.53-2.2,4.27-2.76c1.74-0.56,3.7-0.75,5.931-0.54c2.1,0.2,3.96,0.72,5.569,1.57c1.601,0.84,2.87,2,3.761,3.479
	c0.899,1.471,1.35,3.03,1.399,4.67c0.03,1.641-0.14,4.48-0.52,8.53l-0.641,6.73L343.1,288.14z M334.1,274.24
	c0.17-1.819,0.18-3,0.021-3.529c-0.16-0.54-0.54-0.82-1.181-0.88c-0.529-0.051-0.96,0.12-1.279,0.5c-0.33,0.399-0.58,1.6-0.771,3.62
	l-1.76,18.38c-0.22,2.279-0.26,3.699-0.12,4.25c0.13,0.529,0.54,0.84,1.22,0.899c0.7,0.07,1.17-0.2,1.42-0.8s0.5-2.05,0.7-4.36
	l1.72-18.1l0.021,0.02H334.1z M377,269.42l0.069,39.96l-10.399-1.54l0.5-7.101l-3.65-0.55l-1.64,6.95l-10.5-1.54l10.899-38.34
	l14.7,2.16H377z M367.9,293.77c0.15-4.5,0.431-10.05,0.87-16.649c-2.13,7.34-3.6,12.72-4.359,16.14l3.5,0.5L367.9,293.77z
	 M394.8,272.39l7.54,1.5c4.87,0.98,8.1,1.87,9.74,2.66c1.619,0.8,2.779,1.8,3.47,3c0.7,1.2,1.02,2.439,1,3.729
	c-0.04,1.301-0.42,3.771-1.16,7.44l-2.75,13.569c-0.7,3.5-1.33,5.78-1.9,6.9c-0.55,1.1-1.3,1.9-2.25,2.4
	c-0.939,0.5-2.04,0.75-3.3,0.8c-1.239,0-3.069-0.23-5.479-0.7l-12.7-2.57l7.78-38.749v0.02H394.8z M403.55,281.03l-5.13,25.5
	c1.45,0.3,2.399,0.181,2.859-0.34c0.45-0.5,0.94-2.06,1.46-4.65l3.021-15.049c0.35-1.761,0.52-2.9,0.5-3.4
	c0-0.53-0.18-0.94-0.54-1.26c-0.36-0.32-1.07-0.57-2.18-0.801H403.55z"/>
</svg>
