<?xml version="1.0" encoding="utf-8"?>

<!DOCTYPE svg PUBLIC "-//W3C//DTD SVG 1.1//EN" "http://www.w3.org/Graphics/SVG/1.1/DTD/svg11.dtd">
<svg version="1.1" id="Ai_CC" xmlns="http://www.w3.org/2000/svg" xmlns:xlink="http://www.w3.org/1999/xlink" x="0px" y="0px"
	 viewBox="116 0 611 595" style="enable-background:new 116 0 611 595;" xml:space="preserve">
<style type="text/css">
	.st0{fill:url(#SVGID_1_);}
	.st1{fill:#FF7719;}
</style>
<g id="icon">
	
		<radialGradient id="SVGID_1_" cx="27.2407" cy="570.1967" r="702.7548" gradientTransform="matrix(1.0863 0 0 -1.0863 115.701 646.6393)" gradientUnits="userSpaceOnUse">
		<stop  offset="0" style="stop-color:#3A2C22"/>
		<stop  offset="1.408249e-002" style="stop-color:#392B21"/>
		<stop  offset="0.2894" style="stop-color:#2C1B11"/>
		<stop  offset="0.5967" style="stop-color:#241107"/>
		<stop  offset="1" style="stop-color:#220E04"/>
	</radialGradient>
	<rect x="128.7" y="13" class="st0" width="584.4" height="569.2"/>
	<path class="st1" d="M700.1,26.1v543.1H141.8V26.1H700.1 M726.2,0H115.7v595.3h610.5V0L726.2,0z"/>
</g>
<g id="A">
	<path class="st1" d="M334.3,362.4L306,440.9c-0.4,2.7-2.3,3.6-4.9,3.6h-46.7c-3.2,0-4-1.8-3.2-4.5c25.6-70.1,67.3-184.1,97-262.7
		c1.3-3.6,3.2-8.6,4-24.7c0-2.3,1.3-3.2,3.2-3.2h62.9c1.8,0,2.7,0.4,3.6,2.3c35,95.2,71.4,194,107.3,288.7c0.9,2.7,0,4-2.7,4h-51.6
		c-2.3,0-3.2-0.9-4-2.7l-29.7-79.5L334.3,362.4L334.3,362.4z M428.5,318.4c-9.5-30.1-32.4-91.1-41.7-123.1h-0.4
		c-7.2,29.7-26.1,81.7-40,123.1H428.5z"/>
</g>
<g id="i">
	<rect x="540.6" y="224.1" class="st1" width="52.1" height="220.5"/>
	<circle class="st1" cx="566.6" cy="182.8" r="25.1"/>
</g>
</svg>
