<?xml version="1.0" encoding="utf-8"?>
<!DOCTYPE svg PUBLIC "-//W3C//DTD SVG 1.1//EN" "http://www.w3.org/Graphics/SVG/1.1/DTD/svg11.dtd">
<svg version="1.1" id="Layer_1" xmlns="http://www.w3.org/2000/svg" xmlns:xlink="http://www.w3.org/1999/xlink" x="0px" y="0px"
	 width="165px" height="230px" viewBox="0 0 165 230" enable-background="new 0 0 165 230" xml:space="preserve">
<path opacity="0.75" fill="#333333" enable-background="new    " d="M3.06,3.03v223.13l79.13-28.881l79.1,28.881V3.03H3.04H3.06z"/>
<radialGradient id="SVGID_1_" cx="440.46" cy="-381.4854" r="96.8807" fx="440.534" fy="-381.1914" gradientTransform="matrix(1 0 0 -1 -363.0605 -280.4414)" gradientUnits="userSpaceOnUse">
	<stop  offset="0" style="stop-color:#6B6B6B"/>
	<stop  offset="0.983" style="stop-color:#545454"/>
</radialGradient>
<path fill="url(#SVGID_1_)" d="M6.06,0.03v223.13l79.129-28.881l79.101,28.881V0.03H6.04H6.06z"/>
<path fill="#333333" d="M84.07,67.16c-34.25,0-62.021,27.77-62.021,62.02c0,27.4,17.77,50.65,42.4,58.84
	c3.1,0.57,4.24-1.35,4.24-2.979c0-1.479-0.1-6.38-0.1-11.55c-17.26,3.73-20.9-7.34-20.9-7.34c-2.83-7.16-6.9-9.08-6.9-9.08
	c-5.63-3.84,0.44-3.771,0.44-3.771c6.22,0.44,9.5,6.4,9.5,6.4c5.53,9.479,14.52,6.729,18.05,5.14c0.56-4,2.16-6.73,3.94-8.279
	c-13.77-1.57-28.25-6.9-28.25-30.66c0-6.771,2.4-12.3,6.37-16.64c-0.63-1.57-2.77-7.9,0.6-16.42c0,0,5.2-1.66,17.07,6.36
	c4.94-1.38,10.25-2.06,15.52-2.08c5.261,0.02,10.57,0.7,15.521,2.1c11.8-8.04,17.03-6.37,17.03-6.37c3.4,8.53,1.26,14.84,0.6,16.4
	c4,4.35,6.4,9.87,6.4,16.641c0,23.83-14.5,29.069-28.301,30.6c2.23,1.93,4.201,5.699,4.201,11.5c0,8.3-0.08,15-0.08,17
	c0,1.65,1.119,3.6,4.26,2.98c24.6-8.23,42.4-31.471,42.4-58.851c0-34.25-27.801-62.02-62.041-62.02v0.04l0.03,0.02H84.07z"/>
<path fill="#717659" d="M152.88,0.04l-0.06,218.899l-2.721-0.93V0.07h2.78V0.04z"/>
<path fill="#707559" d="M14.73,0.04l0.05,220.021l2.72-1.221V0.04H14.73z"/>
</svg>
