<svg xmlns="http://www.w3.org/2000/svg" width="514.564" height="212.622" viewBox="-3.5 0.044 514.564 212.622" enable-background="new -3.5 0.044 514.564 212.622"><g><g fill="#333" opacity=".75"><path d="M456.3 7.3c-.1.4-.1.8 0 1.2 0 0 1.3 8.47-.2 12.27l-61.48 159.98c-4.4 11.78 1.5 24.85 13.28 29.35 11.77 4.5 24.85-1.3 29.54-12.98l61.48-160c1.2-3.08 8.08-9.17 8.08-9.17.3-.3.6-.6.8-.9v-.1c0-.1.1-.1.1-.2 1.6-4.1-8.68-11.87-22.85-17.36C470.87 3.9 458 2.8 456.4 7c0 0-.1.1-.1.3z" opacity=".1" enable-background="new"/><path d="M454.5 5.9c-.1.4-.1.8 0 1.2 0 0 1.3 8.48-.2 12.27l-61.47 160c-4.4 11.76 1.5 24.84 13.27 29.33 11.78 4.5 24.85-1.3 29.54-12.98l61.5-159.98c1.2-3.1 8.08-9.2 8.08-9.2.3-.3.6-.58.8-.88v-.1c0-.1.1-.1.1-.2 1.6-4.1-8.7-11.88-22.86-17.37-14.18-5.5-27.06-6.6-28.65-2.4 0 .1 0 .2-.1.3zM473.87 78.25l-44.4 115.38c-3.3 8.28-12.8 12.57-21.27 9.28-8.5-3.27-12.98-12.96-9.88-21.24l28.33-73.75s3.5-5.7 10.48-9.8c7-4.07 12.7-3.17 20.37-6.56 7.8-3.4 16.37-13.28 16.37-13.28zM495.4 22.02c.9-2.3-5.48-6.92-14.22-10.3-8.74-3.37-16.54-4.23-17.42-1.92-.9 2.3 5.48 6.9 14.22 10.3 8.74 3.36 16.54 4.23 17.43 1.92z"/><path d="M454.1 7.08s1.28 8.46-.2 12.24l-61.1 159.54c-4.37 11.74 1.48 24.78 13.18 29.26 2 .8 4.07 1.3 6.15 1.4-7.83-5.98-11.2-16.53-7.63-26.28L464.4 26.9s-8.23-7.68-10.3-19.82z" opacity=".3" enable-background="new"/><ellipse cx="434.461" cy="109.988" rx="1.784" ry="1.791"/><ellipse cx="446.062" cy="122.827" rx="2.677" ry="2.687"/><ellipse cx="428.313" cy="138.153" rx="5.057" ry="5.076"/><ellipse cx="420.183" cy="147.509" rx="2.677" ry="2.687"/><ellipse cx="430.792" cy="167.413" rx="1.784" ry="1.791"/><path d="M117.46 100.14c2.7 2.18 7.6.9 10.88-2.7 3.5-3.77 4-8.65 1.3-10.84-2.7-2.2-7.58-.9-10.88 2.9-3.5 3.77-4.1 8.55-1.3 10.64zm-8.08 7.06c-.7 0-2 1.3-.9 1.8 1.5.5 2.2 1.78 2.2 3.58-1.3 7.46-10.58 15.92-14.17 18.8-.9.9.4 2.9 1.3 2.2 2-1.6 6.2-4.88 9.6-9.26-5.6 12.44-16.57 28.56-20.77 34.24-16.36 22.6-41.2 43.4-58.28 43.4-13.67 0-25.25-9.27-27.75-22.8-.2-1.5-2.2-1.8-1.8.2 3.1 18.6 17.46 25.87 34.83 25.87 19.06 0 41.42-13.73 53.8-27.86 19.95-22.8 32.83-49.07 29.44-63.9-1.4-5.47-5.3-6.37-7.5-6.27zm122.66 49.66c5.3-1.3 9.58-4.18 9.58-8.75 0-.5-.9-.5-.9 0 0 2.7-3.1 5-6.58 5.5-8.2 1.3-24.36-8.27-31.94-18.1 8.18 3.06 24.85-1.4 32.74-7.1 7.28-5.26 10.18-11.04 10.67-15.7.9-7.78-7.56-12.36-19.44-7.78-7.58 3.1-16.67 9.77-26.15 22.3 10-16.42 29.66-43.3 48.9-60.4 23.47-20.8 37.05-16.82 16 5.27-8.7 9.05-25.06 20.8-36.34 25.87-3.5 1.5-1.8 3.48.7 2.38 11.97-5.27 27.94-16.12 37.62-25.18 28.55-27.36 4.7-47.97-26.84-19-21.46 19.7-35.44 40.3-47.6 67.07-4.2 5.08-7.3 9.26-11.1 12.45-.5.4-.8.8-1.1 1.2-10.47 8.94-26.94 21.1-37.22 21.2-7.27.2-10.36-5.3-9.07-12.36 2-11.05 13.48-24.1 23.26-28.57 12.67-5.77 20.16 5.48 3.5 14.43-6.4 3.3-13.98 5.08-17.08 5.08-3.58 0-3.28 1.5-.2 1.6 5.1.2 13.3-2 18.68-4.5 17.06-8.15 18.16-23.37-.4-23.87-20.16-.7-44.32 16.4-44.12 38 .2 9.77 8 15.04 18.67 15.04 17.86-.2 33.73-13.73 46.8-25.67 1.9-1.6 3.7-3.3 5.5-5.08-4.6 11.54-6.9 22.3-5.8 30.25.7 5.77 4 8.46 6.6 10.65.5.38 1.6 0 .9-1.1-3.8-4.5-2.7-17.92 2.5-30.96 4.38 8.76 21.45 19.8 39.3 15.82zm-21.46-37.72c20.86-18.6 29.05-2 15.77 8.17-6.88 5.3-20.56 9.27-24.85 6.68l-.9-.5c-.5-.9-1.1-1.8-1.5-2.68 3.5-4.3 7.5-8.07 11.48-11.66zm115.98-21.2c8.38.9 4.9-9.25-3.6-6.66-3.8 1.1-7.48 8.36-10.18 14.63-8.38 12.46-22.35 29.48-32.13 38.43-8.7 7.47-16.67 9.46-6.9-4.47 4-5.58 9.1-11.55 12-17.52 6.87-15.03-7.8-21.7-19.68-12.64-6.88 5.26-16.16 16.1-23.45 22.08-2 1.6-1.5 3.98.5 2.4 5.8-4.7 15.97-15.43 24.75-21.7 7.3-5.58 10.18-2 6 2.68-5.8 6.67-15.98 18.32-18.57 25.68-3.6 11.05.7 15.92 7.98 15.92 9.98 0 24.85-15.52 34.83-27.86 3.3-4.18 6.9-9.06 10-13.74-8.7 16.82-17.76 33.84-29.04 49.27-15.97 21.7-35.93 38.02-54.9 38.02-13.67 0-25.44-9.26-27.94-22.8-.2-1.5-2-1.8-1.8.2 3.1 18.6 17.48 25.88 34.85 25.88 19.06 0 37.42-11.05 50.3-24.58 25.95-27.37 29.04-58.12 37.03-75.34 3.8-7.84 7.18-8.14 9.98-7.84l-.02-.02zm105.6-26.27c3.78-6.47 3.58-11.54-5.3-11.54-6.7.2-18.86 4.87-24.55 9.25-1.3 1.3-.7 2 .9 1.3 1.1-.4 2.4-1.1 3.6-1.6 6.4-3.48 3.8 3.8 2.4 6.47-7.6 13.24-21.05 31.85-28.14 41.1-3.4 4.58-7.2 9.06-10.88 12.94-6.8 6.45-20.26 17.9-30.54 21.7-33.03 12.32 9.08-43.8 12.58-48.4 7.8-9.74 25.26-26.76 30.55-35.32 3.8-6.48 3.6-11.55-5.3-11.55-6.68.2-18.86 4.87-24.55 9.25-1.3 1.3-.7 2 .9 1.3 1.1-.4 2.4-1.1 3.6-1.6 6.38-3.48 3.8 3.8 2.4 6.47-7.6 13.24-21.07 31.85-28.15 41.1-5.8 7.77-12.88 15.53-18.37 19.9-2.2 1.8-.9 3.5 1.3 2 2-1.3 4.9-4.18 8.18-7.56-5.98 11.94-10.88 28.76 4.9 30.75 13.47 1.8 29.44-11.84 39.82-22 1.1-1.1 2.4-2.38 3.7-3.68.3-.3.6-.6.9-.9-6 11.95-10.9 28.77 4.88 30.76 17.26 2.4 38.72-20.8 47-29.36 1.6-1.6 1.1-4.38-1.6-1.6-4.88 5.08-21.45 20.1-33.43 24.6-33.03 12.33 9.1-43.8 12.58-48.38 7.9-9.96 25.36-26.98 30.65-35.44h-.02z" opacity=".1" enable-background="new"/><path d="M115.67 98.44c2.7 2.2 7.58.9 10.88-2.68 3.5-3.8 4-8.66 1.3-10.85-2.7-2.17-7.6-.9-10.88 2.9-3.5 3.8-4 8.46-1.3 10.65zm-8 7.07c-.68 0-1.98 1.3-.88 1.8 1.47.5 2.17 1.8 2.17 3.6-1.3 7.46-10.58 15.92-14.17 18.8-.9.9.4 2.9 1.3 2.2 2-1.6 6.2-4.88 9.6-9.26-5.6 12.44-16.58 28.56-20.77 34.23-16.37 22.6-41.22 43.4-58.3 43.4-13.66 0-25.24-9.26-27.73-22.8-.2-1.5-2.2-1.8-1.8.2 3.1 18.62 17.47 25.88 34.83 25.88 19.06 0 41.42-13.73 53.8-27.87 19.96-22.8 32.83-49.06 29.44-63.9-1.5-5.56-5.3-6.46-7.5-6.26zm122.57 49.68c5.3-1.3 9.6-4.18 9.6-8.76 0-.48-.9-.48-.9 0 0 2.7-3.1 5-6.6 5.5-8.18 1.28-24.35-8.27-31.94-18.13 8.2 3.1 24.85-1.4 32.74-7.07 7.28-5.27 10.18-11.04 10.68-15.72.9-7.75-7.6-12.33-19.46-7.75-7.6 3.1-16.67 9.75-26.15 22.3 10-16.43 29.66-43.3 48.9-60.42 23.48-20.8 37.05-16.82 16 5.28-8.7 9.06-25.06 20.8-36.34 25.88-3.5 1.5-1.8 3.5.7 2.4 11.98-5.28 27.95-16.13 37.63-25.2 28.53-27.36 4.7-47.96-26.86-19-21.46 19.6-35.43 40.3-47.6 67.08-4.2 5.08-7.3 9.26-11.1 12.44-.5.4-.78.8-1.08 1.2-10.48 8.95-26.95 21.1-37.23 21.2-7.3.2-10.38-5.28-9.08-12.34 2-11.05 13.47-24.1 23.25-28.57 12.67-5.78 20.15 5.47 3.48 14.42-6.38 3.28-13.97 5.07-17.06 5.07-3.6 0-3.3 1.5-.2 1.6 5.1.2 13.27-2 18.66-4.5 17.07-8.16 18.17-23.4-.4-23.88-20.16-.7-44.3 16.42-44.1 38 .2 9.77 7.97 15.04 18.65 15.04 17.87-.2 33.74-13.73 46.8-25.67 1.9-1.6 3.7-3.3 5.5-5.1-4.6 11.54-6.9 22.3-5.8 30.26.7 5.77 4 8.45 6.6 10.64.5.4 1.6 0 .9-1.1-3.8-4.48-2.7-17.9 2.5-30.95 4.48 8.76 21.55 19.8 39.3 15.82zm-21.45-37.82c20.84-18.6 29.02-2 15.75 8.16-6.9 5.3-20.56 9.27-24.86 6.68l-.9-.5c-.5-.9-1.1-1.8-1.5-2.68 3.5-4.18 7.5-8.06 11.5-11.65zm115.95-21.1c8.38.9 4.9-9.25-3.6-6.66-3.8 1.08-7.48 8.35-10.17 14.62-8.4 12.44-22.37 29.45-32.15 38.4-8.68 7.48-16.67 9.47-6.9-4.47 4-5.57 9.1-11.54 12-17.5 6.88-15.04-7.8-21.7-19.67-12.65-6.9 5.27-16.17 16.12-23.46 22.1-2 1.58-1.5 3.97.5 2.38 5.8-4.68 15.97-15.43 24.75-21.7 7.3-5.57 10.18-2 6 2.7-5.8 6.66-15.98 18.3-18.57 25.67-3.6 11.05.7 15.92 7.98 15.92 9.98 0 24.85-15.52 34.84-27.86 3.3-4.16 6.88-9.04 9.98-13.72-8.7 16.82-17.77 33.84-29.05 49.27-15.97 21.7-35.93 38-54.9 38-13.66 0-25.44-9.24-27.94-22.78-.2-1.5-2-1.8-1.8.2 3.1 18.6 17.47 25.88 34.84 25.88 19.06 0 37.43-11.05 50.3-24.58 25.95-27.37 29.04-58.13 37.03-75.34 3.8-7.87 7.3-8.26 9.98-7.87zm105.6-26.37c3.8-6.48 3.6-11.55-5.3-11.55-6.68.2-18.86 4.87-24.55 9.25-1.3 1.28-.7 1.98.9 1.28 1.1-.4 2.4-1.1 3.6-1.6 6.4-3.47 3.8 3.8 2.4 6.48-7.6 13.24-21.06 31.85-28.15 41.1-3.4 4.58-7.18 9.06-10.88 12.94-6.78 6.47-20.26 17.92-30.54 21.7-33.03 12.34 9.1-43.8 12.58-48.37 7.8-9.75 25.27-26.77 30.56-35.33 3.8-6.47 3.6-11.55-5.3-11.55-6.68.2-18.85 4.88-24.54 9.26-1.3 1.3-.7 2 .9 1.3 1.1-.4 2.4-1.1 3.6-1.6 6.4-3.46 3.8 3.8 2.4 6.5-7.6 13.23-21.06 31.84-28.15 41.1-5.8 7.76-12.87 15.52-18.36 19.9-2.2 1.8-.9 3.5 1.3 2 2-1.3 4.9-4.2 8.2-7.57-6 11.94-10.9 28.76 4.87 30.75 13.47 1.8 29.44-11.84 39.82-22 1.1-1.1 2.4-2.38 3.7-3.68.3-.3.6-.6.9-.9-6 11.94-10.9 28.76 4.87 30.75 17.27 2.4 38.73-20.8 47-29.36 1.6-1.6 1.1-4.4-1.6-1.6-4.88 5.06-21.45 20.1-33.42 24.57-33.04 12.34 9.08-43.8 12.57-48.37 8-9.94 25.36-26.96 30.65-35.42h-.02z"/></g><path d="M459.3 4.3c-.1.4-.1.8 0 1.2 0 0 1.3 8.47-.2 12.27l-61.48 159.98c-4.4 11.78 1.5 24.85 13.28 29.35 11.77 4.5 24.85-1.3 29.54-12.98l61.48-160c1.2-3.08 8.08-9.17 8.08-9.17.3-.3.6-.6.8-.9v-.1c0-.1.1-.1.1-.2 1.6-4.1-8.68-11.87-22.85-17.36C473.87.9 461-.2 459.4 4c0 0-.1.1-.1.3z" opacity=".1" enable-background="new"/><linearGradient id="a" x1="-41.828" x2="-41.38" y1="253.61" y2="253.515" gradientUnits="userSpaceOnUse" gradientTransform="matrix(114.91 0 0 -207.18 5228.434 52638.551)"><stop offset="0" stop-color="#919191"/><stop offset="1" stop-color="#fff"/></linearGradient><path fill="url(#a)" d="M457.5 2.9c-.1.4-.1.8 0 1.2 0 0 1.3 8.48-.2 12.27l-61.47 160c-4.4 11.76 1.5 24.84 13.27 29.33 11.78 4.5 24.85-1.3 29.54-12.98l61.5-159.98c1.2-3.1 8.08-9.2 8.08-9.2.3-.3.6-.58.8-.88v-.1c0-.1.1-.1.1-.2 1.6-4.1-8.7-11.88-22.86-17.37-14.18-5.5-27.06-6.6-28.65-2.4 0 .1 0 .2-.1.3z"/><linearGradient id="b" x1="-41.087" x2="-40.68" y1="253.047" y2="252.952" gradientUnits="userSpaceOnUse" gradientTransform="matrix(76.534 0 0 -125.771 3565.011 31954.315)"><stop offset="0" stop-color="#900"/><stop offset="1" stop-color="#E80000"/></linearGradient><path fill="url(#b)" d="M476.87 75.25l-44.4 115.38c-3.3 8.28-12.8 12.57-21.27 9.28-8.5-3.27-12.98-12.96-9.88-21.24l28.33-73.75s3.5-5.7 10.48-9.8c7-4.07 12.7-3.17 20.37-6.56 7.8-3.4 16.37-13.28 16.37-13.28z"/><path fill="#333" d="M498.4 19.02c.9-2.3-5.48-6.92-14.22-10.3-8.74-3.37-16.54-4.23-17.42-1.92-.9 2.3 5.48 6.9 14.22 10.3 8.74 3.36 16.54 4.23 17.43 1.92z"/><path fill="#fff" d="M457.1 4.08s1.28 8.46-.2 12.24l-61.1 159.54c-4.37 11.74 1.48 24.78 13.18 29.26 2 .8 4.07 1.3 6.15 1.4-7.83-5.98-11.2-16.53-7.63-26.28L467.4 23.9s-8.23-7.68-10.3-19.82z" opacity=".3" enable-background="new"/><g fill="#fff" transform="translate(394.23) translate(25.78 104.5)" opacity=".5"><ellipse cx="17.451" cy="2.488" rx="1.784" ry="1.791"/><ellipse cx="29.052" cy="15.327" rx="2.677" ry="2.687"/><ellipse cx="11.303" cy="30.653" rx="5.057" ry="5.076"/><ellipse cx="3.173" cy="40.009" rx="2.677" ry="2.687"/><ellipse cx="13.782" cy="59.913" rx="1.784" ry="1.791"/></g><path d="M120.46 97.14c2.7 2.18 7.6.9 10.88-2.7 3.5-3.77 4-8.65 1.3-10.84-2.7-2.2-7.58-.9-10.88 2.9-3.5 3.77-4.1 8.55-1.3 10.64zm-8.08 7.06c-.7 0-2 1.3-.9 1.8 1.5.5 2.2 1.78 2.2 3.58-1.3 7.46-10.58 15.92-14.17 18.8-.9.9.4 2.9 1.3 2.2 2-1.6 6.2-4.88 9.6-9.26-5.6 12.44-16.57 28.56-20.77 34.24-16.36 22.6-41.2 43.4-58.28 43.4-13.67 0-25.25-9.27-27.75-22.8-.2-1.5-2.2-1.8-1.8.2 3.1 18.6 17.46 25.87 34.83 25.87 19.06 0 41.42-13.73 53.8-27.86 19.95-22.8 32.83-49.07 29.44-63.9-1.4-5.47-5.3-6.37-7.5-6.27zm122.66 49.66c5.3-1.3 9.58-4.18 9.58-8.75 0-.5-.9-.5-.9 0 0 2.7-3.1 5-6.58 5.5-8.2 1.3-24.36-8.27-31.94-18.1 8.18 3.06 24.85-1.4 32.74-7.1 7.28-5.26 10.18-11.04 10.67-15.7.9-7.78-7.56-12.36-19.44-7.78-7.58 3.1-16.67 9.77-26.15 22.3 10-16.42 29.66-43.3 48.9-60.4 23.47-20.8 37.05-16.82 16 5.27-8.7 9.05-25.06 20.8-36.34 25.87-3.5 1.5-1.8 3.48.7 2.38 11.97-5.27 27.94-16.12 37.62-25.18 28.55-27.36 4.7-47.97-26.84-19-21.46 19.7-35.44 40.3-47.6 67.07-4.2 5.08-7.3 9.26-11.1 12.45-.5.4-.8.8-1.1 1.2-10.47 8.94-26.94 21.1-37.22 21.2-7.27.2-10.36-5.3-9.07-12.36 2-11.05 13.48-24.1 23.26-28.57 12.67-5.77 20.16 5.48 3.5 14.43-6.4 3.3-13.98 5.08-17.08 5.08-3.58 0-3.28 1.5-.2 1.6 5.1.2 13.3-2 18.68-4.5 17.06-8.15 18.16-23.37-.4-23.87-20.16-.7-44.32 16.4-44.12 38 .2 9.77 8 15.04 18.67 15.04 17.86-.2 33.73-13.73 46.8-25.67 1.9-1.6 3.7-3.3 5.5-5.08-4.6 11.54-6.9 22.3-5.8 30.25.7 5.77 4 8.46 6.6 10.65.5.38 1.6 0 .9-1.1-3.8-4.5-2.7-17.92 2.5-30.96 4.38 8.76 21.45 19.8 39.3 15.82zm-21.46-37.72c20.86-18.6 29.05-2 15.77 8.17-6.88 5.3-20.56 9.27-24.85 6.68l-.9-.5c-.5-.9-1.1-1.8-1.5-2.68 3.5-4.3 7.5-8.07 11.48-11.66zm115.98-21.2c8.38.9 4.9-9.25-3.6-6.66-3.8 1.1-7.48 8.36-10.18 14.63-8.38 12.46-22.35 29.48-32.13 38.43-8.7 7.47-16.67 9.46-6.9-4.47 4-5.58 9.1-11.55 12-17.52 6.87-15.03-7.8-21.7-19.68-12.64-6.88 5.26-16.16 16.1-23.45 22.08-2 1.6-1.5 3.98.5 2.4 5.8-4.7 15.97-15.43 24.75-21.7 7.3-5.58 10.18-2 6 2.68-5.8 6.67-15.98 18.32-18.57 25.68-3.6 11.05.7 15.92 7.98 15.92 9.98 0 24.85-15.52 34.83-27.86 3.3-4.18 6.9-9.06 10-13.74-8.7 16.82-17.76 33.84-29.04 49.27-15.97 21.7-35.93 38.02-54.9 38.02-13.67 0-25.44-9.26-27.94-22.8-.2-1.5-2-1.8-1.8.2 3.1 18.6 17.48 25.88 34.85 25.88 19.06 0 37.42-11.05 50.3-24.58 25.95-27.37 29.04-58.12 37.03-75.34 3.8-7.84 7.18-8.14 9.98-7.84l-.02-.02zm105.6-26.27c3.78-6.47 3.58-11.54-5.3-11.54-6.7.2-18.86 4.87-24.55 9.25-1.3 1.3-.7 2 .9 1.3 1.1-.4 2.4-1.1 3.6-1.6 6.4-3.48 3.8 3.8 2.4 6.47-7.6 13.24-21.05 31.85-28.14 41.1-3.4 4.58-7.2 9.06-10.88 12.94-6.8 6.45-20.26 17.9-30.54 21.7-33.03 12.32 9.08-43.8 12.58-48.4 7.8-9.74 25.26-26.76 30.55-35.32 3.8-6.48 3.6-11.55-5.3-11.55-6.68.2-18.86 4.87-24.55 9.25-1.3 1.3-.7 2 .9 1.3 1.1-.4 2.4-1.1 3.6-1.6 6.38-3.48 3.8 3.8 2.4 6.47-7.6 13.24-21.07 31.85-28.15 41.1-5.8 7.77-12.88 15.53-18.37 19.9-2.2 1.8-.9 3.5 1.3 2 2-1.3 4.9-4.18 8.18-7.56-5.98 11.94-10.88 28.76 4.9 30.75 13.47 1.8 29.44-11.84 39.82-22 1.1-1.1 2.4-2.38 3.7-3.68.3-.3.6-.6.9-.9-6 11.95-10.9 28.77 4.88 30.76 17.26 2.4 38.72-20.8 47-29.36 1.6-1.6 1.1-4.38-1.6-1.6-4.88 5.08-21.45 20.1-33.43 24.6-33.03 12.33 9.1-43.8 12.58-48.38 7.9-9.96 25.36-26.98 30.65-35.44h-.02z" opacity=".1" enable-background="new"/><linearGradient id="c" x1="-42.622" x2="-42.622" y1="252.825" y2="253.824" gradientUnits="userSpaceOnUse" gradientTransform="matrix(435.645 0 0 -163.605 18785.947 41564.258)"><stop offset="0" stop-color="#1A1A1A"/><stop offset=".403" stop-color="#4A4A4C"/><stop offset="1" stop-color="#333"/></linearGradient><path fill="url(#c)" d="M118.67 95.44c2.7 2.2 7.58.9 10.88-2.68 3.5-3.8 4-8.66 1.3-10.85-2.7-2.17-7.6-.9-10.88 2.9-3.5 3.8-4 8.46-1.3 10.65zm-8 7.07c-.68 0-1.98 1.3-.88 1.8 1.47.5 2.17 1.8 2.17 3.6-1.3 7.46-10.58 15.92-14.17 18.8-.9.9.4 2.9 1.3 2.2 2-1.6 6.2-4.88 9.6-9.26-5.6 12.44-16.58 28.56-20.77 34.23-16.37 22.6-41.22 43.4-58.3 43.4-13.66 0-25.24-9.26-27.73-22.8-.2-1.5-2.2-1.8-1.8.2 3.1 18.62 17.47 25.88 34.83 25.88 19.06 0 41.42-13.73 53.8-27.87 19.96-22.8 32.83-49.06 29.44-63.9-1.5-5.56-5.3-6.46-7.5-6.26zm122.57 49.68c5.3-1.3 9.6-4.18 9.6-8.76 0-.48-.9-.48-.9 0 0 2.7-3.1 5-6.6 5.5-8.18 1.28-24.35-8.27-31.94-18.13 8.2 3.1 24.85-1.4 32.74-7.07 7.28-5.27 10.18-11.04 10.68-15.72.9-7.75-7.6-12.33-19.46-7.75-7.6 3.1-16.67 9.75-26.15 22.3 10-16.43 29.66-43.3 48.9-60.42 23.48-20.8 37.05-16.82 16 5.28-8.7 9.06-25.06 20.8-36.34 25.88-3.5 1.5-1.8 3.5.7 2.4 11.98-5.28 27.95-16.13 37.63-25.2 28.53-27.36 4.7-47.96-26.86-19-21.46 19.6-35.43 40.3-47.6 67.08-4.2 5.08-7.3 9.26-11.1 12.44-.5.4-.78.8-1.08 1.2-10.48 8.95-26.95 21.1-37.23 21.2-7.3.2-10.38-5.28-9.08-12.34 2-11.05 13.47-24.1 23.25-28.57 12.67-5.78 20.15 5.47 3.48 14.42-6.38 3.28-13.97 5.07-17.06 5.07-3.6 0-3.3 1.5-.2 1.6 5.1.2 13.27-2 18.66-4.5 17.07-8.16 18.17-23.4-.4-23.88-20.16-.7-44.3 16.42-44.1 38 .2 9.77 7.97 15.04 18.65 15.04 17.87-.2 33.74-13.73 46.8-25.67 1.9-1.6 3.7-3.3 5.5-5.1-4.6 11.54-6.9 22.3-5.8 30.26.7 5.77 4 8.45 6.6 10.64.5.4 1.6 0 .9-1.1-3.8-4.48-2.7-17.9 2.5-30.95 4.48 8.76 21.55 19.8 39.3 15.82zm-21.45-37.82c20.84-18.6 29.02-2 15.75 8.16-6.9 5.3-20.56 9.27-24.86 6.68l-.9-.5c-.5-.9-1.1-1.8-1.5-2.68 3.5-4.18 7.5-8.06 11.5-11.65zm115.95-21.1c8.38.9 4.9-9.25-3.6-6.66-3.8 1.08-7.48 8.35-10.17 14.62-8.4 12.44-22.37 29.45-32.15 38.4-8.68 7.48-16.67 9.47-6.9-4.47 4-5.57 9.1-11.54 12-17.5 6.88-15.04-7.8-21.7-19.67-12.65-6.9 5.27-16.17 16.12-23.46 22.1-2 1.58-1.5 3.97.5 2.38 5.8-4.68 15.97-15.43 24.75-21.7 7.3-5.57 10.18-2 6 2.7-5.8 6.66-15.98 18.3-18.57 25.67-3.6 11.05.7 15.92 7.98 15.92 9.98 0 24.85-15.52 34.84-27.86 3.3-4.16 6.88-9.04 9.98-13.72-8.7 16.82-17.77 33.84-29.05 49.27-15.97 21.7-35.93 38-54.9 38-13.66 0-25.44-9.24-27.94-22.78-.2-1.5-2-1.8-1.8.2 3.1 18.6 17.47 25.88 34.84 25.88 19.06 0 37.43-11.05 50.3-24.58 25.95-27.37 29.04-58.13 37.03-75.34 3.8-7.87 7.3-8.26 9.98-7.87zm105.6-26.37c3.8-6.48 3.6-11.55-5.3-11.55-6.68.2-18.86 4.87-24.55 9.25-1.3 1.28-.7 1.98.9 1.28 1.1-.4 2.4-1.1 3.6-1.6 6.4-3.47 3.8 3.8 2.4 6.48-7.6 13.24-21.06 31.85-28.15 41.1-3.4 4.58-7.18 9.06-10.88 12.94-6.78 6.47-20.26 17.92-30.54 21.7-33.03 12.34 9.1-43.8 12.58-48.37 7.8-9.75 25.27-26.77 30.56-35.33 3.8-6.47 3.6-11.55-5.3-11.55-6.68.2-18.85 4.88-24.54 9.26-1.3 1.3-.7 2 .9 1.3 1.1-.4 2.4-1.1 3.6-1.6 6.4-3.46 3.8 3.8 2.4 6.5-7.6 13.23-21.06 31.84-28.15 41.1-5.8 7.76-12.87 15.52-18.36 19.9-2.2 1.8-.9 3.5 1.3 2 2-1.3 4.9-4.2 8.2-7.57-6 11.94-10.9 28.76 4.87 30.75 13.47 1.8 29.44-11.84 39.82-22 1.1-1.1 2.4-2.38 3.7-3.68.3-.3.6-.6.9-.9-6 11.94-10.9 28.76 4.87 30.75 17.27 2.4 38.73-20.8 47-29.36 1.6-1.6 1.1-4.4-1.6-1.6-4.88 5.06-21.45 20.1-33.42 24.57-33.04 12.34 9.08-43.8 12.57-48.37 8-9.94 25.36-26.96 30.65-35.42h-.02z"/></g></svg>