<?xml version="1.0" encoding="utf-8"?>
<!-- Generator: Adobe Illustrator 16.0.0, SVG Export Plug-In . SVG Version: 6.00 Build 0)  -->
<!DOCTYPE svg PUBLIC "-//W3C//DTD SVG 1.1//EN" "http://www.w3.org/Graphics/SVG/1.1/DTD/svg11.dtd">
<svg version="1.1" id="Layer_2" xmlns="http://www.w3.org/2000/svg" xmlns:xlink="http://www.w3.org/1999/xlink" x="0px" y="0px"
	 width="311.13px" height="300.151px" viewBox="258.5 0 311.13 300.151" enable-background="new 258.5 0 311.13 300.151"
	 xml:space="preserve">
<radialGradient id="SVGID_1_" cx="-1000.5862" cy="-789.1721" r="0.655" gradientTransform="matrix(327.4042 0 0 316.9868 327963.7188 250231.5469)" gradientUnits="userSpaceOnUse">
	<stop  offset="0" style="stop-color:#34364E;stop-opacity:0.98"/>
	<stop  offset="1" style="stop-color:#0C0824"/>
</radialGradient>
<path fill="url(#SVGID_1_)" d="M274.66,12.829h282.201V287.32H274.66V12.829z"/>
<path fill="#31C5F0" d="M274.66,12.829h282.201V287.32H274.66V12.829z M261.829,300.151H569.63V0H261.829V300.151z M469.395,123.182
	c-10.116,0-13.57,5.119-13.57,9.375c0,4.626,2.281,7.834,15.913,14.866c20.109,9.746,26.401,19.122,26.401,32.816
	c0,20.54-15.668,31.582-36.825,31.582c-11.165,0-20.787-2.282-26.276-5.49c-0.926-0.37-1.05-1.049-1.05-2.036v-18.937
	c0-1.295,0.618-1.666,1.542-1.048c8.081,5.242,17.334,7.587,25.784,7.587c10.116,0,14.373-4.257,14.373-9.994
	c0-4.626-2.961-8.697-15.915-15.421c-18.197-8.697-25.784-17.518-25.784-32.321c0-16.531,12.954-30.286,35.407-30.286
	c11.041,0,18.752,1.666,22.945,3.577c1.049,0.617,1.296,1.666,1.296,2.591v17.58c0,1.049-0.617,1.666-1.912,1.295
	C486.049,125.34,477.722,123.182,469.395,123.182L469.395,123.182z M359.105,138.417c2.96,0.247,5.242,0.247,10.362,0.247
	c14.989,0,29.115-5.243,29.115-25.66c0-16.284-10.117-24.489-27.202-24.489c-5.12,0-9.994,0.247-12.337,0.371L359.105,138.417
	L359.105,138.417z M336.22,70.318c0-0.924,1.789-1.542,2.837-1.542c8.205-0.37,20.418-0.616,33.063-0.616
	c35.529,0,49.408,19.492,49.408,44.35c0,32.57-23.624,46.572-52.615,46.572c-4.873,0-6.539-0.247-9.992-0.247v49.223
	c0,1.049-0.371,1.542-1.543,1.542h-19.615c-1.049,0-1.542-0.37-1.542-1.542V70.318L336.22,70.318z"/>
</svg>
