<svg xmlns="http://www.w3.org/2000/svg" width="180.1" height="155.7" viewBox="0 0 180.076 155.71"><radialGradient id="a" cx="51.1" cy="98" r="77.8" gradientUnits="userSpaceOnUse"><stop offset="0" stop-color="#81B9A5"/><stop offset=".7" stop-color="#585443"/></radialGradient><path fill="url(#a)" d="M50.6 155.7L71.8 66l15.7 58.6"/><radialGradient id="b" cx="143.9" cy="73" r="92.2" gradientUnits="userSpaceOnUse"><stop offset="0" stop-color="#9BCDB1"/><stop offset="1" stop-color="#726E65"/></radialGradient><path fill="url(#b)" d="M71.8 66l12-63.3 64.3 74.5"/><linearGradient id="c" gradientUnits="userSpaceOnUse" x1="175.1" y1="34.3" x2="132.4" y2="63.5"><stop offset="0" stop-color="#87D77A"/><stop offset="1" stop-color="#585443"/></linearGradient><path fill="url(#c)" d="M148 77.2l14.2-39.5-40.5 8.8"/><linearGradient id="d" gradientUnits="userSpaceOnUse" x1="158.7" y1="46.7" x2="178.9" y2="54.2"><stop offset="0" stop-color="#333"/><stop offset="1" stop-color="#AAB585"/></linearGradient><path fill="url(#d)" d="M162.2 37.7l18 14.4-24.5 4"/><radialGradient id="e" cx="84" cy="8.9" r="83.2" gradientUnits="userSpaceOnUse"><stop offset="0" stop-color="#AAB585"/><stop offset="1" stop-color="#726E65"/></radialGradient><path fill="url(#e)" d="M84 2.7L2.3 0l68 72 1.4-6"/><linearGradient id="f" gradientUnits="userSpaceOnUse" x1="52.9" y1="43" x2="-46.9" y2="13.8"><stop offset="0" stop-color="#333"/><stop offset="1" stop-color="#585433"/></linearGradient><path fill="url(#f)" d="M70.4 72L0 6.3l8.3-.2"/><linearGradient id="g" gradientUnits="userSpaceOnUse" x1="26.1" y1="90.9" x2="194.1" y2="88.5"><stop offset="0" stop-color="#B8F6ED"/><stop offset="0" stop-color="#B7F5EC"/><stop offset=".3" stop-color="#89B1AB"/><stop offset=".5" stop-color="#647B77"/><stop offset=".7" stop-color="#495452"/><stop offset=".9" stop-color="#393C3B"/><stop offset="1" stop-color="#333"/></linearGradient><path fill="url(#g)" d="M71.8 66l13 48.4L148 77.2"/></svg>